# xmcd
#
# Track frame offsets: 
#        150
#        16830
#        30956
#        44793
#        58971
#        71888
#        86122
#        102109
#        116086
#        132460
#        145523
#        162226
#        179564
#        195973
#        208471
#        217884
#
# Disc length: 3162 seconds
#
# Revision: 0
# Processed by: cddbd v1.5.2PL0 Copyright (c) Steve Scherf et al.
# Submitted via: ExactAudioCopyFreeDBPlugin 1.0
#
DISCID=ef0c5810
DTITLE=Schorsch Hampel;Arthur Dittlmann - Permanente Bluesmaschin 
DYEAR=2013
DGENRE=Blues;Bayrisch
TTITLE0=Eiglodn 
TTITLE1=Pubertät
TTITLE2=Handy gwaschn
TTITLE3=Fadismablues
TTITLE4=Haifisch
TTITLE5=Paradies
TTITLE6=Permanente Bluesmaschin
TTITLE7=Hexn abc
TTITLE8=Gartenzwergtwist
TTITLE9=Wasser gheat zum Waschn
TTITLE10=Magst du an Apfe?
TTITLE11=G 8
TTITLE12=Guad Gez
TTITLE13=Zwida
TTITLE14=Weltverdruss
TTITLE15=Kauderig
EXTD=
EXTT0=
EXTT1=
EXTT2=
EXTT3=
EXTT4=
EXTT5=
EXTT6=
EXTT7=
EXTT8=
EXTT9=
EXTT10=
EXTT11=
EXTT12=
EXTT13=
EXTT14=
EXTT15=
PLAYORDER=
